<svg width="8" height="8" viewBox="0 0 8 8" fill="none" xmlns="http://www.w3.org/2000/svg">
<g id="icon/social/person_outline_24px">
<rect x="0.25" y="0.25" width="7.5" height="7.5" rx="3.75" stroke="white" stroke-width="0.5"/>
<path id="icon/social/person_outline_24px_2" fill-rule="evenodd" clip-rule="evenodd" d="M3.99995 2.22266C3.50883 2.22266 3.11106 2.62043 3.11106 3.11155C3.11106 3.60266 3.50883 4.00043 3.99995 4.00043C4.49106 4.00043 4.88883 3.60266 4.88883 3.11155C4.88883 2.62043 4.49106 2.22266 3.99995 2.22266ZM4.46663 3.11178C4.46663 2.854 4.25774 2.64511 3.99996 2.64511C3.74218 2.64511 3.53329 2.854 3.53329 3.11178C3.53329 3.36955 3.74218 3.57844 3.99996 3.57844C4.25774 3.57844 4.46663 3.36955 4.46663 3.11178ZM5.35552 5.11178C5.35552 4.96955 4.65996 4.64511 3.99996 4.64511C3.33996 4.64511 2.6444 4.96955 2.6444 5.11178V5.35622H5.35552V5.11178ZM2.22217 5.11155C2.22217 4.52043 3.40661 4.22266 3.99995 4.22266C4.59328 4.22266 5.77772 4.52043 5.77772 5.11155V5.55599C5.77772 5.67821 5.67772 5.77821 5.5555 5.77821H2.44439C2.32217 5.77821 2.22217 5.67821 2.22217 5.55599V5.11155Z" fill="white"/>
</g>
</svg>
